<svg enable-background="new 0 0 520 520" height="512" viewBox="0 0 520 520" width="512" xmlns="http://www.w3.org/2000/svg"><g id="_x33_6_x2C__no_x2C__camera_x2C__picture"><g id="XMLID_754_"><g id="XMLID_762_"><path id="XMLID_343_" d="m260 500c-64.106 0-124.375-24.964-169.706-70.294s-70.294-105.6-70.294-169.706 24.964-124.375 70.294-169.706 105.6-70.294 169.706-70.294 124.376 24.964 169.706 70.294 70.294 105.6 70.294 169.706-24.964 124.376-70.294 169.706-105.6 70.294-169.706 70.294zm0-460c-121.309 0-220 98.691-220 220s98.691 220 220 220 220-98.691 220-220-98.691-220-220-220z"/></g><g id="XMLID_761_"><path id="XMLID_340_" d="m260 459.906c-51.222 0-102.427-19.49-141.421-58.484-37.775-37.776-58.579-88-58.579-141.422s20.804-103.646 58.579-141.421 87.999-58.579 141.421-58.579 103.646 20.804 141.422 58.579c77.979 77.98 77.979 204.863 0 282.843-38.985 38.984-90.213 58.484-141.422 58.484zm0-379.906c-48.08 0-93.282 18.723-127.279 52.721-33.998 33.997-52.721 79.199-52.721 127.279s18.723 93.282 52.721 127.279c70.182 70.183 184.375 70.183 254.558 0 70.182-70.183 70.182-184.377 0-254.558-33.997-33.998-79.199-52.721-127.279-52.721z"/></g><g id="XMLID_760_"><path id="XMLID_337_" d="m360 370h-200c-22.056 0-40-17.944-40-40v-120c0-22.056 17.944-40 40-40h62.192l8.106-32.425c1.113-4.452 5.113-7.575 9.702-7.575h80c4.589 0 8.589 3.123 9.701 7.575l8.107 32.425h22.192c22.056 0 40 17.944 40 40v120c0 22.056-17.944 40-40 40zm-200-180c-11.028 0-20 8.972-20 20v120c0 11.028 8.972 20 20 20h200c11.028 0 20-8.972 20-20v-120c0-11.028-8.972-20-20-20h-30c-4.589 0-8.589-3.123-9.701-7.575l-8.107-32.425h-64.385l-8.106 32.425c-1.113 4.452-5.112 7.575-9.701 7.575z"/></g><g id="XMLID_759_"><path id="XMLID_334_" d="m210 190h-30c-5.523 0-10-4.477-10-10v-15c0-13.785 11.215-25 25-25s25 11.215 25 25v15c0 5.523-4.477 10-10 10zm-20-20h10v-5c0-2.757-2.243-5-5-5s-5 2.243-5 5z"/></g><g id="XMLID_758_"><path id="XMLID_331_" d="m260 340c-38.598 0-70-31.402-70-70s31.402-70 70-70 70 31.402 70 70-31.402 70-70 70zm0-120c-27.57 0-50 22.43-50 50s22.43 50 50 50 50-22.43 50-50-22.43-50-50-50z"/></g><g id="XMLID_757_"><path id="XMLID_328_" d="m260 300c-16.542 0-30-13.458-30-30s13.458-30 30-30 30 13.458 30 30-13.458 30-30 30zm0-40c-5.514 0-10 4.486-10 10s4.486 10 10 10 10-4.486 10-10-4.486-10-10-10z"/></g><g id="XMLID_756_"><path id="XMLID_327_" d="m125.65 404.351c-2.559 0-5.119-.977-7.071-2.929-3.905-3.905-3.905-10.237 0-14.143l268.701-268.701c3.906-3.905 10.236-3.905 14.143 0 3.905 3.905 3.905 10.237 0 14.142l-268.702 268.702c-1.952 1.952-4.512 2.929-7.071 2.929z"/></g><g id="XMLID_755_"><circle id="XMLID_1634_" cx="350" cy="220" r="10"/></g></g></g></svg>